<?xml version="1.0" encoding="UTF-8"?>
<svg xmlns="http://www.w3.org/2000/svg" xmlns:xlink="http://www.w3.org/1999/xlink" width="36px" height="36px" viewBox="0 0 36 36" version="1.1">
<g id="surface1">
<path style=" stroke:none;fill-rule:nonzero;fill:rgb(0%,0%,0%);fill-opacity:1;" d="M 16.824219 0.0117188 C 16.746094 0.0195312 16.5 0.0429688 16.277344 0.0585938 C 11.160156 0.515625 6.375 3.28125 3.339844 7.523438 C 1.652344 9.878906 0.574219 12.550781 0.164062 15.386719 C 0.0195312 16.371094 0 16.664062 0 18.003906 C 0 19.347656 0.0195312 19.640625 0.164062 20.625 C 1.136719 27.386719 5.953125 33.070312 12.472656 35.167969 C 13.640625 35.550781 14.871094 35.808594 16.277344 35.957031 C 16.824219 36.023438 19.175781 36.023438 19.722656 35.957031 C 22.144531 35.695312 24.1875 35.097656 26.207031 34.066406 C 26.519531 33.902344 26.578125 33.867188 26.535156 33.832031 C 26.507812 33.808594 25.191406 32.039062 23.601562 29.894531 L 20.730469 26.011719 L 17.121094 20.671875 C 15.136719 17.738281 13.5 15.332031 13.488281 15.332031 C 13.476562 15.328125 13.457031 17.707031 13.453125 20.601562 C 13.441406 25.667969 13.441406 25.875 13.378906 25.992188 C 13.285156 26.167969 13.214844 26.238281 13.066406 26.316406 C 12.957031 26.367188 12.855469 26.378906 12.328125 26.378906 L 11.71875 26.378906 L 11.554688 26.277344 C 11.449219 26.214844 11.367188 26.121094 11.320312 26.019531 L 11.246094 25.863281 L 11.25 18.808594 L 11.261719 11.746094 L 11.367188 11.613281 C 11.425781 11.535156 11.542969 11.441406 11.628906 11.394531 C 11.777344 11.324219 11.832031 11.320312 12.441406 11.320312 C 13.160156 11.320312 13.277344 11.34375 13.464844 11.554688 C 13.519531 11.605469 15.46875 14.554688 17.808594 18.09375 C 20.144531 21.636719 23.339844 26.472656 24.910156 28.851562 L 27.761719 33.167969 L 27.902344 33.074219 C 29.179688 32.246094 30.527344 31.058594 31.605469 29.832031 C 33.878906 27.214844 35.34375 24.023438 35.835938 20.625 C 35.980469 19.640625 36 19.347656 36 18.003906 C 36 16.664062 35.980469 16.371094 35.835938 15.386719 C 34.863281 8.625 30.046875 2.941406 23.527344 0.84375 C 22.371094 0.46875 21.152344 0.210938 19.78125 0.0585938 C 19.441406 0.0234375 17.109375 -0.0195312 16.824219 0.0117188 Z M 24.1875 10.898438 C 24.363281 10.980469 24.492188 11.144531 24.542969 11.308594 C 24.574219 11.402344 24.582031 13.359375 24.574219 17.769531 L 24.5625 24.09375 L 23.449219 22.386719 L 22.324219 20.675781 L 22.324219 16.078125 C 22.324219 13.101562 22.339844 11.433594 22.359375 11.355469 C 22.417969 11.15625 22.546875 11.003906 22.710938 10.910156 C 22.855469 10.832031 22.910156 10.828125 23.460938 10.828125 C 23.980469 10.828125 24.070312 10.832031 24.1875 10.898438 Z M 24.1875 10.898438 "/>
</g>
</svg>
