<?xml version="1.0" encoding="UTF-8"?>
<svg xmlns="http://www.w3.org/2000/svg" xmlns:xlink="http://www.w3.org/1999/xlink" width="36px" height="36px" viewBox="0 0 36 36" version="1.1">
<g id="surface1">
<path style=" stroke:none;fill-rule:nonzero;fill:rgb(50.196081%,87.058824%,91.764706%);fill-opacity:1;" d="M 18 25.5 C 8.324219 25.5 0.75 22.199219 0.75 18 C 0.75 13.800781 8.324219 10.5 18 10.5 C 27.675781 10.5 35.25 13.800781 35.25 18 C 35.25 22.199219 27.675781 25.5 18 25.5 Z M 18 12 C 8.550781 12 2.25 15.074219 2.25 18 C 2.25 20.925781 8.550781 24 18 24 C 27.449219 24 33.75 20.925781 33.75 18 C 33.75 15.074219 27.449219 12 18 12 Z M 18 12 "/>
<path style=" stroke:none;fill-rule:nonzero;fill:rgb(50.196081%,87.058824%,91.764706%);fill-opacity:1;" d="M 11.324219 33.449219 C 10.574219 33.449219 9.972656 33.300781 9.375 32.925781 C 5.699219 30.824219 6.675781 22.652344 11.472656 14.25 C 13.722656 10.347656 16.5 7.050781 19.199219 4.949219 C 22.125 2.699219 24.75 2.027344 26.550781 3.074219 C 28.425781 4.125 29.097656 6.75 28.652344 10.425781 C 28.199219 13.875 26.699219 17.925781 24.449219 21.824219 C 22.199219 25.722656 19.425781 29.027344 16.722656 31.125 C 14.777344 32.625 12.902344 33.449219 11.324219 33.449219 Z M 24.675781 4.050781 C 23.472656 4.050781 21.902344 4.722656 20.175781 6.074219 C 17.625 8.097656 15 11.25 12.824219 15 C 8.097656 23.175781 7.652344 30.222656 10.125 31.652344 C 11.402344 32.402344 13.5 31.722656 15.824219 29.925781 C 18.375 27.902344 21 24.75 23.175781 21 C 25.347656 17.25 26.777344 13.425781 27.222656 10.199219 C 27.597656 7.199219 27.152344 5.097656 25.875 4.347656 C 25.5 4.199219 25.125 4.050781 24.675781 4.050781 Z M 24.675781 4.050781 "/>
<path style=" stroke:none;fill-rule:nonzero;fill:rgb(50.196081%,87.058824%,91.764706%);fill-opacity:1;" d="M 24.75 33.449219 C 21 33.449219 15.597656 28.875 11.550781 21.75 C 6.675781 13.347656 5.699219 5.175781 9.375 3.074219 C 13.050781 0.972656 19.652344 5.847656 24.527344 14.25 C 26.777344 18.152344 28.277344 22.199219 28.722656 25.652344 C 29.25 29.324219 28.5 31.875 26.625 33 C 26.027344 33.300781 25.425781 33.449219 24.75 33.449219 Z M 10.125 4.347656 C 7.652344 5.777344 8.097656 12.824219 12.824219 21 C 17.550781 29.175781 23.402344 33.074219 25.875 31.652344 C 27.152344 30.902344 27.597656 28.800781 27.222656 25.800781 C 26.777344 22.574219 25.347656 18.75 23.175781 15 C 18.449219 6.824219 12.597656 2.925781 10.125 4.347656 Z M 10.125 4.347656 "/>
<path style=" stroke:none;fill-rule:nonzero;fill:rgb(50.196081%,87.058824%,91.764706%);fill-opacity:1;" d="M 21 18 C 21 16.339844 19.660156 15 18 15 C 16.339844 15 15 16.339844 15 18 C 15 19.660156 16.339844 21 18 21 C 19.660156 21 21 19.660156 21 18 Z M 21 18 "/>
</g>
</svg>
