<?xml version="1.0" encoding="UTF-8"?>
<svg xmlns="http://www.w3.org/2000/svg" xmlns:xlink="http://www.w3.org/1999/xlink" width="36px" height="36px" viewBox="0 0 36 36" version="1.1">
<defs>
<linearGradient id="linear0" gradientUnits="userSpaceOnUse" x1="30.724501" y1="14.1218" x2="20.576401" y2="28.0753" gradientTransform="matrix(1.125,0,0,1.125,0,0)">
<stop offset="0.18" style="stop-color:rgb(0%,32.156863%,80%);stop-opacity:1;"/>
<stop offset="1" style="stop-color:rgb(14.901961%,51.764706%,100%);stop-opacity:1;"/>
</linearGradient>
</defs>
<g id="surface1">
<path style=" stroke:none;fill-rule:nonzero;fill:rgb(14.901961%,51.764709%,100%);fill-opacity:1;" d="M 3.273438 3.375 C 2.972656 3.371094 2.691406 3.503906 2.496094 3.738281 C 2.300781 3.96875 2.214844 4.28125 2.261719 4.585938 L 6.546875 31.441406 C 6.65625 32.121094 7.222656 32.621094 7.890625 32.625 L 28.445312 32.625 C 28.941406 32.632812 29.371094 32.257812 29.453125 31.75 L 33.738281 4.589844 C 33.785156 4.285156 33.699219 3.976562 33.503906 3.742188 C 33.308594 3.507812 33.027344 3.375 32.726562 3.378906 Z M 21.3125 22.785156 L 14.753906 22.785156 L 12.976562 13.203125 L 22.902344 13.203125 Z M 21.3125 22.785156 "/>
<path style=" stroke:none;fill-rule:evenodd;fill:url(#linear0);" d="M 32.375 13.203125 L 22.902344 13.203125 L 21.3125 22.785156 L 14.753906 22.785156 L 7.007812 32.28125 C 7.253906 32.5 7.566406 32.621094 7.890625 32.625 L 28.449219 32.625 C 28.949219 32.632812 29.378906 32.257812 29.457031 31.75 Z M 32.375 13.203125 "/>
</g>
</svg>
