<?xml version="1.0" encoding="UTF-8"?>
<svg xmlns="http://www.w3.org/2000/svg" xmlns:xlink="http://www.w3.org/1999/xlink" width="36px" height="36px" viewBox="0 0 36 36" version="1.1">
<g id="surface1">
<path style=" stroke:none;fill-rule:nonzero;fill:rgb(95.686275%,31.764707%,11.764706%);fill-opacity:1;" d="M 31.652344 16.574219 L 19.425781 4.347656 C 19.050781 3.972656 18.527344 3.75 18 3.75 C 17.472656 3.75 16.949219 3.972656 16.574219 4.347656 L 13.949219 6.972656 L 17.027344 10.050781 C 17.324219 9.902344 17.625 9.824219 18 9.824219 C 19.277344 9.824219 20.25 10.800781 20.25 12.074219 C 20.25 12.449219 20.175781 12.75 20.027344 13.050781 L 23.027344 16.050781 C 23.324219 15.902344 23.625 15.824219 24 15.824219 C 25.277344 15.824219 26.25 16.800781 26.25 18.074219 C 26.25 19.347656 25.277344 20.324219 24 20.324219 C 22.722656 20.324219 21.75 19.347656 21.75 18.074219 C 21.75 17.699219 21.824219 17.402344 21.972656 17.097656 L 18.972656 14.097656 C 18.902344 14.097656 18.824219 14.175781 18.75 14.175781 L 18.75 21.972656 C 19.652344 22.277344 20.25 23.097656 20.25 24.074219 C 20.25 25.347656 19.277344 26.324219 18 26.324219 C 16.722656 26.324219 15.75 25.347656 15.75 24.074219 C 15.75 23.097656 16.347656 22.277344 17.25 21.972656 L 17.25 14.097656 C 16.347656 13.800781 15.75 12.972656 15.75 12 C 15.75 11.625 15.824219 11.324219 15.972656 11.027344 L 12.902344 7.949219 L 4.347656 16.574219 C 3.972656 16.949219 3.75 17.472656 3.75 18 C 3.75 18.527344 3.972656 19.050781 4.347656 19.425781 L 16.574219 31.652344 C 16.949219 32.027344 17.472656 32.25 18 32.25 C 18.527344 32.25 19.050781 32.027344 19.425781 31.652344 L 31.652344 19.425781 C 32.027344 19.050781 32.25 18.527344 32.25 18 C 32.25 17.472656 32.027344 16.949219 31.652344 16.574219 Z M 31.652344 16.574219 "/>
</g>
</svg>
