<?xml version="1.0" encoding="UTF-8"?>
<svg xmlns="http://www.w3.org/2000/svg" xmlns:xlink="http://www.w3.org/1999/xlink" width="36px" height="36px" viewBox="0 0 36 36" version="1.1">
<g id="surface1">
<path style=" stroke:none;fill-rule:nonzero;fill:rgb(100%,83.92157%,0%);fill-opacity:1;" d="M 4.5 31.5 L 4.5 4.5 L 31.5 4.5 L 31.5 31.5 Z M 4.5 31.5 "/>
<path style=" stroke:none;fill-rule:nonzero;fill:rgb(0%,0%,0.392157%);fill-opacity:1;" d="M 22.152344 24.707031 C 22.667969 25.550781 23.238281 26.363281 24.433594 26.363281 C 25.433594 26.363281 25.964844 25.863281 25.964844 25.171875 C 25.964844 24.347656 25.417969 24.050781 24.308594 23.574219 L 23.707031 23.316406 C 21.960938 22.574219 20.800781 21.644531 20.800781 19.683594 C 20.800781 17.878906 22.183594 16.5 24.347656 16.5 C 25.886719 16.5 26.988281 17.035156 27.792969 18.425781 L 25.902344 19.636719 C 25.488281 18.894531 25.042969 18.605469 24.347656 18.605469 C 23.636719 18.605469 23.183594 19.050781 23.183594 19.636719 C 23.183594 20.363281 23.636719 20.648438 24.675781 21.097656 L 25.277344 21.355469 C 27.339844 22.238281 28.5 23.128906 28.5 25.144531 C 28.5 27.308594 26.789062 28.5 24.488281 28.5 C 22.238281 28.5 20.957031 27.371094 20.25 25.972656 Z M 13.464844 24.773438 C 13.847656 25.453125 14.417969 25.972656 15.253906 25.972656 C 16.042969 25.972656 16.5 25.660156 16.5 24.441406 L 16.5 16.5 L 19.003906 16.5 L 19.003906 24.824219 C 19.003906 27.351562 17.535156 28.5 15.398438 28.5 C 13.464844 28.5 12.070312 27.191406 11.503906 25.972656 Z M 13.464844 24.773438 "/>
</g>
</svg>
