<?xml version="1.0" encoding="UTF-8"?>
<svg xmlns="http://www.w3.org/2000/svg" xmlns:xlink="http://www.w3.org/1999/xlink" width="36px" height="36px" viewBox="0 0 36 36" version="1.1">
<defs>
<linearGradient id="linear0" gradientUnits="userSpaceOnUse" x1="15.2357" y1="7.67312" x2="8.09646" y2="10.7902" gradientTransform="matrix(1.125,0,0,1.125,0,0)">
<stop offset="0.18" style="stop-color:rgb(0%,32.156863%,80%);stop-opacity:1;"/>
<stop offset="1" style="stop-color:rgb(14.901961%,51.764706%,100%);stop-opacity:1;"/>
</linearGradient>
<linearGradient id="linear1" gradientUnits="userSpaceOnUse" x1="16.817699" y1="24.278601" x2="23.944099" y2="21.183599" gradientTransform="matrix(1.125,0,0,1.125,0,0)">
<stop offset="0.18" style="stop-color:rgb(0%,32.156863%,80%);stop-opacity:1;"/>
<stop offset="1" style="stop-color:rgb(14.901961%,51.764706%,100%);stop-opacity:1;"/>
</linearGradient>
</defs>
<g id="surface1">
<path style=" stroke:none;fill-rule:nonzero;fill:rgb(14.901961%,51.764709%,100%);fill-opacity:1;" d="M 33.371094 17.117188 L 19.359375 3.5625 L 18 2.25 L 7.449219 12.453125 L 2.628906 17.117188 C 2.125 17.605469 2.125 18.394531 2.628906 18.882812 L 12.265625 28.203125 L 18 33.75 L 28.550781 23.546875 L 28.710938 23.386719 L 33.371094 18.882812 C 33.875 18.394531 33.875 17.605469 33.371094 17.117188 Z M 18 22.65625 L 13.183594 18 L 18 13.34375 L 22.816406 18 Z M 18 22.65625 "/>
<path style=" stroke:none;fill-rule:evenodd;fill:url(#linear0);" d="M 18 13.34375 C 14.847656 10.292969 14.832031 5.355469 17.964844 2.289062 L 7.429688 12.472656 L 13.164062 18.019531 Z M 18 13.34375 "/>
<path style=" stroke:none;fill-rule:evenodd;fill:url(#linear1);" d="M 22.828125 17.988281 L 18 22.65625 C 19.523438 24.128906 20.375 26.121094 20.375 28.203125 C 20.375 30.285156 19.523438 32.277344 18 33.75 L 28.5625 23.535156 Z M 22.828125 17.988281 "/>
</g>
</svg>
