<?xml version="1.0" encoding="UTF-8"?>
<svg xmlns="http://www.w3.org/2000/svg" xmlns:xlink="http://www.w3.org/1999/xlink" width="36px" height="36px" viewBox="0 0 36 36" version="1.1">
<g id="surface1">
<path style=" stroke:none;fill-rule:nonzero;fill:rgb(11.372549%,91.37255%,71.372551%);fill-opacity:1;" d="M 10.699219 29.675781 C 10.359375 29.082031 10.335938 28.371094 10.59375 27.75 L 3.574219 27.75 L 14.308594 9.503906 L 17.800781 15.433594 L 19.542969 12.472656 L 16.269531 6.917969 C 15.863281 6.214844 15.128906 5.800781 14.308594 5.800781 C 13.496094 5.800781 12.761719 6.214844 12.351562 6.917969 L 0.347656 27.316406 C -0.0703125 28.019531 -0.0742188 28.898438 0.328125 29.601562 C 0.730469 30.308594 1.488281 30.75 2.300781 30.75 L 12.386719 30.75 C 11.683594 30.679688 11.050781 30.292969 10.699219 29.675781 Z M 1.636719 28.078125 L 1.644531 28.078125 Z M 1.636719 28.078125 "/>
<path style=" stroke:none;fill-rule:nonzero;fill:rgb(0%,74.901962%,64.705884%);fill-opacity:1;" d="M 35.738281 27.480469 L 25.105469 9.421875 C 24.707031 8.746094 24.003906 8.34375 23.226562 8.34375 C 22.441406 8.34375 21.738281 8.746094 21.339844 9.421875 L 19.542969 12.472656 L 21.28125 15.433594 L 23.226562 12.136719 L 32.25 27.75 L 28.5 27.75 C 28.691406 28.355469 28.613281 29.042969 28.292969 29.601562 C 27.890625 30.308594 27.066406 30.75 26.25 30.75 C 26.25 30.761719 26.25 30.738281 26.25 30.75 L 33.75 30.75 C 34.535156 30.75 35.363281 30.355469 35.746094 29.675781 C 36.140625 28.996094 36.136719 28.152344 35.738281 27.480469 Z M 35.738281 27.480469 "/>
<path style=" stroke:none;fill-rule:nonzero;fill:rgb(0%,51.372552%,56.078434%);fill-opacity:1;" d="M 28.5 27.75 C 28.449219 27.589844 28.363281 27.464844 28.277344 27.316406 L 21.28125 15.433594 L 19.542969 12.472656 L 17.800781 15.433594 L 10.710938 27.480469 C 10.660156 27.566406 10.636719 27.660156 10.59375 27.75 C 10.335938 28.371094 10.355469 29.085938 10.699219 29.675781 C 11.050781 30.292969 11.683594 30.679688 12.386719 30.75 L 26.316406 30.75 C 27.128906 30.75 27.890625 30.308594 28.292969 29.601562 C 28.613281 29.042969 28.691406 28.355469 28.5 27.75 Z M 19.542969 18.386719 L 25.050781 27.75 L 14.035156 27.75 Z M 19.542969 18.386719 "/>
</g>
</svg>
