<?xml version="1.0" encoding="UTF-8"?>
<svg xmlns="http://www.w3.org/2000/svg" xmlns:xlink="http://www.w3.org/1999/xlink" width="36px" height="36px" viewBox="0 0 36 36" version="1.1">
<g id="surface1">
<path style=" stroke:none;fill-rule:nonzero;fill:rgb(38.039216%,85.490197%,98.431373%);fill-opacity:1;" d="M 29.582031 16.761719 C 29.582031 15.210938 27.644531 13.738281 24.675781 12.824219 C 25.359375 9.785156 25.054688 7.371094 23.714844 6.589844 C 23.402344 6.410156 23.039062 6.328125 22.644531 6.328125 L 22.644531 7.386719 C 22.863281 7.386719 23.039062 7.433594 23.183594 7.519531 C 23.835938 7.894531 24.117188 9.308594 23.894531 11.132812 C 23.847656 11.582031 23.761719 12.058594 23.652344 12.539062 C 22.722656 12.308594 21.703125 12.136719 20.628906 12.019531 C 19.988281 11.132812 19.324219 10.332031 18.652344 9.628906 C 20.203125 8.179688 21.65625 7.386719 22.652344 7.386719 L 22.652344 6.324219 C 21.339844 6.324219 19.628906 7.261719 17.894531 8.882812 C 16.160156 7.265625 14.441406 6.339844 13.136719 6.339844 L 13.136719 7.40625 C 14.121094 7.40625 15.585938 8.199219 17.132812 9.632812 C 16.472656 10.335938 15.800781 11.132812 15.167969 12.019531 C 14.089844 12.136719 13.074219 12.308594 12.140625 12.542969 C 12.027344 12.066406 11.953125 11.601562 11.894531 11.15625 C 11.671875 9.332031 11.949219 7.917969 12.585938 7.535156 C 12.730469 7.449219 12.914062 7.410156 13.136719 7.410156 L 13.136719 6.347656 C 12.738281 6.347656 12.375 6.433594 12.058594 6.613281 C 10.722656 7.386719 10.425781 9.800781 11.109375 12.832031 C 8.152344 13.746094 6.222656 15.214844 6.222656 16.761719 C 6.222656 18.324219 8.160156 19.792969 11.132812 20.707031 C 10.449219 23.742188 10.753906 26.160156 12.09375 26.933594 C 12.402344 27.117188 12.761719 27.207031 13.167969 27.207031 C 14.472656 27.207031 16.191406 26.269531 17.917969 24.644531 C 19.652344 26.261719 21.371094 27.1875 22.675781 27.1875 C 23.082031 27.1875 23.4375 27.097656 23.753906 26.917969 C 25.089844 26.144531 25.394531 23.730469 24.703125 20.699219 C 27.65625 19.785156 29.582031 18.316406 29.582031 16.761719 Z M 23.386719 13.574219 C 23.207031 14.191406 22.988281 14.832031 22.738281 15.464844 C 22.546875 15.082031 22.339844 14.699219 22.113281 14.320312 C 21.894531 13.941406 21.660156 13.566406 21.433594 13.199219 C 22.105469 13.300781 22.757812 13.425781 23.386719 13.574219 Z M 21.199219 18.667969 C 20.832031 19.3125 20.449219 19.925781 20.058594 20.496094 C 19.347656 20.554688 18.628906 20.589844 17.902344 20.589844 C 17.183594 20.589844 16.464844 20.554688 15.761719 20.496094 C 15.363281 19.925781 14.976562 19.324219 14.605469 18.679688 C 14.246094 18.058594 13.917969 17.417969 13.617188 16.78125 C 13.910156 16.144531 14.246094 15.496094 14.601562 14.871094 C 14.976562 14.226562 15.351562 13.617188 15.75 13.042969 C 16.457031 12.984375 17.179688 12.949219 17.902344 12.949219 C 18.621094 12.949219 19.339844 12.984375 20.042969 13.042969 C 20.4375 13.613281 20.824219 14.214844 21.199219 14.859375 C 21.5625 15.488281 21.890625 16.121094 22.191406 16.761719 C 21.890625 17.402344 21.5625 18.042969 21.199219 18.667969 Z M 22.738281 18.046875 C 22.992188 18.667969 23.207031 19.300781 23.394531 19.945312 C 22.777344 20.105469 22.113281 20.230469 21.433594 20.332031 C 21.667969 19.964844 21.902344 19.589844 22.121094 19.199219 C 22.339844 18.816406 22.546875 18.425781 22.738281 18.046875 Z M 17.910156 23.144531 C 17.464844 22.6875 17.027344 22.175781 16.589844 21.621094 C 17.015625 21.636719 17.457031 21.652344 17.894531 21.652344 C 18.347656 21.652344 18.785156 21.636719 19.21875 21.621094 C 18.816406 22.148438 18.375 22.664062 17.910156 23.144531 Z M 14.367188 20.332031 C 13.691406 20.230469 13.042969 20.105469 12.417969 19.949219 C 12.589844 19.335938 12.816406 18.703125 13.058594 18.066406 C 13.253906 18.445312 13.457031 18.832031 13.683594 19.214844 C 13.910156 19.59375 14.132812 19.96875 14.367188 20.332031 Z M 17.886719 10.382812 C 18.328125 10.839844 18.773438 11.355469 19.214844 11.910156 C 18.785156 11.894531 18.347656 11.882812 17.902344 11.882812 C 17.457031 11.882812 17.011719 11.886719 16.582031 11.910156 C 16.988281 11.378906 17.425781 10.871094 17.886719 10.382812 Z M 14.367188 13.199219 C 14.132812 13.570312 13.898438 13.945312 13.675781 14.332031 C 13.457031 14.714844 13.253906 15.097656 13.058594 15.480469 C 12.808594 14.859375 12.589844 14.222656 12.402344 13.574219 C 13.027344 13.429688 13.683594 13.300781 14.367188 13.199219 Z M 10.054688 19.183594 C 8.367188 18.464844 7.277344 17.511719 7.277344 16.761719 C 7.277344 16.011719 8.367188 15.066406 10.054688 14.347656 C 10.464844 14.167969 10.910156 14.015625 11.371094 13.863281 C 11.648438 14.800781 12 15.773438 12.445312 16.777344 C 12.003906 17.769531 11.652344 18.738281 11.390625 19.667969 C 10.917969 19.523438 10.472656 19.359375 10.054688 19.183594 Z M 12.613281 26.015625 C 11.972656 25.640625 11.691406 24.222656 11.90625 22.394531 C 11.957031 21.949219 12.046875 21.472656 12.152344 20.996094 C 13.082031 21.222656 14.105469 21.398438 15.175781 21.511719 C 15.816406 22.394531 16.480469 23.199219 17.15625 23.902344 C 15.605469 25.347656 14.144531 26.144531 13.152344 26.144531 C 12.9375 26.136719 12.761719 26.097656 12.613281 26.015625 Z M 23.910156 22.371094 C 24.136719 24.199219 23.859375 25.617188 23.214844 25.992188 C 23.074219 26.082031 22.886719 26.121094 22.667969 26.121094 C 21.679688 26.121094 20.222656 25.332031 18.667969 23.894531 C 19.335938 23.191406 20.003906 22.386719 20.636719 21.503906 C 21.714844 21.394531 22.730469 21.214844 23.667969 20.980469 C 23.769531 21.464844 23.859375 21.933594 23.910156 22.371094 Z M 25.746094 19.183594 C 25.335938 19.359375 24.890625 19.519531 24.425781 19.667969 C 24.152344 18.730469 23.792969 17.753906 23.355469 16.757812 C 23.789062 15.761719 24.144531 14.792969 24.410156 13.855469 C 24.886719 14.011719 25.332031 14.167969 25.746094 14.347656 C 27.433594 15.070312 28.523438 16.011719 28.523438 16.761719 C 28.523438 17.511719 27.433594 18.46875 25.746094 19.183594 Z M 25.746094 19.183594 "/>
<path style=" stroke:none;fill-rule:nonzero;fill:rgb(38.039216%,85.490197%,98.431373%);fill-opacity:1;" d="M 17.894531 18.949219 C 19.101562 18.949219 20.074219 17.972656 20.074219 16.761719 C 20.074219 15.5625 19.101562 14.582031 17.894531 14.582031 C 16.699219 14.582031 15.722656 15.5625 15.722656 16.761719 C 15.722656 17.972656 16.699219 18.949219 17.894531 18.949219 Z M 7.285156 30.964844 L 6.5625 30.964844 L 6.5625 32.207031 L 6.160156 32.207031 L 6.160156 29.136719 L 7.171875 29.136719 C 7.519531 29.136719 7.78125 29.214844 7.96875 29.371094 C 8.152344 29.53125 8.246094 29.761719 8.246094 30.058594 C 8.246094 30.253906 8.191406 30.421875 8.089844 30.5625 C 7.988281 30.703125 7.847656 30.808594 7.664062 30.878906 L 8.378906 32.183594 L 8.378906 32.207031 L 7.945312 32.207031 Z M 6.5625 30.632812 L 7.183594 30.632812 C 7.382812 30.632812 7.546875 30.582031 7.664062 30.480469 C 7.78125 30.375 7.839844 30.234375 7.839844 30.058594 C 7.839844 29.871094 7.78125 29.722656 7.667969 29.625 C 7.558594 29.527344 7.394531 29.472656 7.183594 29.472656 L 6.5625 29.472656 Z M 9.691406 32.25 C 9.386719 32.25 9.136719 32.152344 8.941406 31.945312 C 8.746094 31.738281 8.652344 31.472656 8.652344 31.128906 L 8.652344 31.058594 C 8.652344 30.832031 8.695312 30.632812 8.777344 30.449219 C 8.863281 30.277344 8.988281 30.136719 9.140625 30.035156 C 9.300781 29.933594 9.46875 29.882812 9.644531 29.882812 C 9.941406 29.882812 10.171875 29.980469 10.335938 30.175781 C 10.5 30.375 10.582031 30.652344 10.582031 31.011719 L 10.582031 31.175781 L 9.042969 31.175781 C 9.046875 31.40625 9.113281 31.589844 9.234375 31.730469 C 9.363281 31.863281 9.519531 31.933594 9.714844 31.933594 C 9.855469 31.933594 9.964844 31.902344 10.066406 31.847656 C 10.160156 31.792969 10.242188 31.714844 10.3125 31.621094 L 10.550781 31.808594 C 10.359375 32.105469 10.078125 32.25 9.691406 32.25 Z M 9.644531 30.207031 C 9.492188 30.207031 9.355469 30.261719 9.253906 30.378906 C 9.144531 30.492188 9.082031 30.652344 9.050781 30.855469 L 10.195312 30.855469 L 10.195312 30.824219 C 10.183594 30.632812 10.125 30.480469 10.03125 30.371094 C 9.9375 30.257812 9.808594 30.207031 9.644531 30.207031 Z M 12.433594 32.207031 C 12.410156 32.160156 12.394531 32.085938 12.378906 31.96875 C 12.199219 32.15625 11.980469 32.25 11.730469 32.25 C 11.507812 32.25 11.324219 32.183594 11.179688 32.0625 C 11.039062 31.933594 10.96875 31.769531 10.96875 31.574219 C 10.96875 31.335938 11.058594 31.152344 11.238281 31.027344 C 11.414062 30.890625 11.671875 30.824219 11.996094 30.824219 L 12.375 30.824219 L 12.375 30.644531 C 12.375 30.511719 12.332031 30.402344 12.253906 30.324219 C 12.167969 30.238281 12.050781 30.199219 11.894531 30.199219 C 11.753906 30.199219 11.636719 30.234375 11.542969 30.304688 C 11.449219 30.375 11.402344 30.457031 11.402344 30.558594 L 11.015625 30.558594 C 11.015625 30.445312 11.050781 30.332031 11.132812 30.230469 C 11.214844 30.121094 11.320312 30.042969 11.460938 29.976562 C 11.601562 29.910156 11.753906 29.882812 11.917969 29.882812 C 12.175781 29.882812 12.386719 29.949219 12.535156 30.082031 C 12.679688 30.210938 12.753906 30.394531 12.761719 30.628906 L 12.761719 31.675781 C 12.761719 31.878906 12.792969 32.050781 12.84375 32.175781 L 12.84375 32.207031 Z M 11.789062 31.910156 C 11.910156 31.910156 12.027344 31.878906 12.136719 31.816406 C 12.246094 31.753906 12.328125 31.667969 12.375 31.570312 L 12.375 31.101562 L 12.070312 31.101562 C 11.597656 31.101562 11.355469 31.242188 11.355469 31.519531 C 11.355469 31.640625 11.394531 31.738281 11.480469 31.804688 C 11.558594 31.875 11.660156 31.910156 11.789062 31.910156 Z M 14.285156 31.933594 C 14.417969 31.933594 14.542969 31.894531 14.648438 31.804688 C 14.753906 31.722656 14.808594 31.617188 14.816406 31.488281 L 15.1875 31.488281 C 15.183594 31.617188 15.136719 31.746094 15.050781 31.863281 C 14.972656 31.980469 14.859375 32.074219 14.71875 32.144531 C 14.582031 32.214844 14.4375 32.25 14.285156 32.25 C 13.972656 32.25 13.730469 32.144531 13.546875 31.941406 C 13.359375 31.734375 13.269531 31.449219 13.269531 31.089844 L 13.269531 31.027344 C 13.269531 30.800781 13.3125 30.605469 13.394531 30.425781 C 13.476562 30.257812 13.59375 30.121094 13.738281 30.027344 C 13.894531 29.933594 14.074219 29.882812 14.277344 29.882812 C 14.535156 29.882812 14.746094 29.957031 14.917969 30.113281 C 15.082031 30.269531 15.175781 30.46875 15.1875 30.707031 L 14.816406 30.707031 C 14.808594 30.5625 14.753906 30.445312 14.648438 30.347656 C 14.554688 30.253906 14.425781 30.207031 14.277344 30.207031 C 14.085938 30.207031 13.933594 30.277344 13.824219 30.421875 C 13.710938 30.5625 13.660156 30.769531 13.660156 31.035156 L 13.660156 31.113281 C 13.660156 31.371094 13.710938 31.574219 13.824219 31.714844 C 13.925781 31.863281 14.085938 31.933594 14.285156 31.933594 Z M 16.148438 29.371094 L 16.148438 29.925781 L 16.574219 29.925781 L 16.574219 30.230469 L 16.148438 30.230469 L 16.148438 31.640625 C 16.148438 31.734375 16.171875 31.804688 16.207031 31.851562 C 16.242188 31.894531 16.3125 31.917969 16.402344 31.917969 C 16.449219 31.917969 16.503906 31.910156 16.582031 31.894531 L 16.582031 32.207031 C 16.480469 32.238281 16.382812 32.25 16.289062 32.25 C 16.113281 32.25 15.984375 32.199219 15.894531 32.089844 C 15.808594 31.988281 15.761719 31.839844 15.761719 31.640625 L 15.761719 30.230469 L 15.351562 30.230469 L 15.351562 29.925781 L 15.761719 29.925781 L 15.761719 29.371094 Z M 20.507812 32.207031 L 20.105469 32.207031 L 18.5625 29.839844 L 18.5625 32.207031 L 18.160156 32.207031 L 18.160156 29.136719 L 18.5625 29.136719 L 20.109375 31.519531 L 20.109375 29.136719 L 20.507812 29.136719 Z M 22.570312 32.207031 C 22.546875 32.160156 22.523438 32.085938 22.511719 31.96875 C 22.332031 32.15625 22.113281 32.25 21.867188 32.25 C 21.644531 32.25 21.457031 32.183594 21.316406 32.0625 C 21.167969 31.933594 21.097656 31.769531 21.097656 31.574219 C 21.097656 31.335938 21.1875 31.152344 21.371094 31.027344 C 21.550781 30.890625 21.800781 30.824219 22.125 30.824219 L 22.503906 30.824219 L 22.503906 30.644531 C 22.503906 30.511719 22.464844 30.402344 22.382812 30.324219 C 22.300781 30.238281 22.183594 30.199219 22.027344 30.199219 C 21.886719 30.199219 21.773438 30.234375 21.679688 30.304688 C 21.585938 30.375 21.539062 30.457031 21.539062 30.558594 L 21.144531 30.558594 C 21.144531 30.445312 21.1875 30.332031 21.261719 30.230469 C 21.347656 30.121094 21.457031 30.042969 21.589844 29.976562 C 21.730469 29.910156 21.886719 29.882812 22.050781 29.882812 C 22.3125 29.882812 22.519531 29.949219 22.664062 30.082031 C 22.808594 30.210938 22.886719 30.394531 22.894531 30.628906 L 22.894531 31.675781 C 22.894531 31.878906 22.921875 32.050781 22.972656 32.175781 L 22.972656 32.207031 Z M 21.925781 31.910156 C 22.042969 31.910156 22.160156 31.878906 22.265625 31.816406 C 22.378906 31.753906 22.457031 31.667969 22.503906 31.570312 L 22.503906 31.101562 L 22.199219 31.101562 C 21.726562 31.101562 21.488281 31.242188 21.488281 31.519531 C 21.488281 31.640625 21.527344 31.738281 21.609375 31.804688 C 21.691406 31.875 21.796875 31.910156 21.925781 31.910156 Z M 24.027344 29.371094 L 24.027344 29.925781 L 24.457031 29.925781 L 24.457031 30.230469 L 24.027344 30.230469 L 24.027344 31.640625 C 24.027344 31.734375 24.046875 31.804688 24.089844 31.851562 C 24.128906 31.894531 24.1875 31.917969 24.28125 31.917969 C 24.328125 31.917969 24.386719 31.910156 24.46875 31.894531 L 24.46875 32.207031 C 24.363281 32.238281 24.261719 32.25 24.167969 32.25 C 23.996094 32.25 23.863281 32.199219 23.777344 32.089844 C 23.683594 31.988281 23.644531 31.839844 23.644531 31.640625 L 23.644531 30.230469 L 23.226562 30.230469 L 23.226562 29.925781 L 23.644531 29.925781 L 23.644531 29.371094 Z M 25.335938 32.207031 L 24.941406 32.207031 L 24.941406 29.925781 L 25.335938 29.925781 Z M 24.914062 29.320312 C 24.914062 29.253906 24.933594 29.203125 24.972656 29.160156 C 25.007812 29.113281 25.066406 29.097656 25.144531 29.097656 C 25.21875 29.097656 25.277344 29.113281 25.3125 29.160156 C 25.355469 29.203125 25.371094 29.253906 25.371094 29.320312 C 25.371094 29.386719 25.355469 29.4375 25.3125 29.480469 C 25.277344 29.519531 25.21875 29.542969 25.144531 29.542969 C 25.066406 29.542969 25.007812 29.519531 24.972656 29.480469 C 24.933594 29.4375 24.914062 29.386719 24.914062 29.320312 Z M 26.707031 31.683594 L 27.269531 29.925781 L 27.667969 29.925781 L 26.855469 32.207031 L 26.554688 32.207031 L 25.734375 29.925781 L 26.132812 29.925781 Z M 28.957031 32.25 C 28.644531 32.25 28.394531 32.152344 28.199219 31.945312 C 28.007812 31.738281 27.914062 31.472656 27.914062 31.128906 L 27.914062 31.058594 C 27.914062 30.832031 27.957031 30.632812 28.042969 30.449219 C 28.125 30.277344 28.246094 30.136719 28.402344 30.035156 C 28.558594 29.933594 28.722656 29.882812 28.902344 29.882812 C 29.203125 29.882812 29.433594 29.980469 29.597656 30.175781 C 29.761719 30.375 29.839844 30.652344 29.839844 31.011719 L 29.839844 31.175781 L 28.300781 31.175781 C 28.308594 31.40625 28.371094 31.589844 28.496094 31.730469 C 28.621094 31.863281 28.78125 31.933594 28.972656 31.933594 C 29.109375 31.933594 29.226562 31.902344 29.324219 31.847656 C 29.417969 31.792969 29.503906 31.714844 29.574219 31.621094 L 29.8125 31.808594 C 29.621094 32.105469 29.332031 32.25 28.957031 32.25 Z M 28.902344 30.207031 C 28.746094 30.207031 28.617188 30.261719 28.511719 30.378906 C 28.40625 30.492188 28.335938 30.652344 28.3125 30.855469 L 29.449219 30.855469 L 29.449219 30.824219 C 29.4375 30.632812 29.390625 30.480469 29.292969 30.371094 C 29.199219 30.257812 29.066406 30.207031 28.902344 30.207031 Z M 28.902344 30.207031 "/>
</g>
</svg>
