<?xml version="1.0" encoding="UTF-8"?>
<svg xmlns="http://www.w3.org/2000/svg" xmlns:xlink="http://www.w3.org/1999/xlink" width="36px" height="36px" viewBox="0 0 36 36" version="1.1">
<g id="surface1">
<path style=" stroke:none;fill-rule:nonzero;fill:rgb(18.039216%,71.372551%,49.019608%);fill-opacity:1;" d="M 29.8125 16.875 C 31.367188 16.875 32.625 15.617188 32.625 14.0625 C 32.625 12.507812 31.367188 11.25 29.8125 11.25 C 28.257812 11.25 27 12.507812 27 14.0625 L 27 16.875 Z M 21.9375 16.875 C 23.492188 16.875 24.75 15.617188 24.75 14.0625 L 24.75 6.1875 C 24.75 4.632812 23.492188 3.375 21.9375 3.375 C 20.382812 3.375 19.125 4.632812 19.125 6.1875 L 19.125 14.0625 C 19.125 15.617188 20.382812 16.875 21.9375 16.875 Z M 21.9375 16.875 "/>
<path style=" stroke:none;fill-rule:nonzero;fill:rgb(87.843138%,11.764706%,35.294119%);fill-opacity:1;" d="M 6.1875 19.125 C 4.632812 19.125 3.375 20.382812 3.375 21.9375 C 3.375 23.492188 4.632812 24.75 6.1875 24.75 C 7.742188 24.75 9 23.492188 9 21.9375 L 9 19.125 Z M 14.0625 19.125 C 12.507812 19.125 11.25 20.382812 11.25 21.9375 L 11.25 29.8125 C 11.25 31.367188 12.507812 32.625 14.0625 32.625 C 15.617188 32.625 16.875 31.367188 16.875 29.8125 L 16.875 21.9375 C 16.875 20.382812 15.617188 19.125 14.0625 19.125 Z M 14.0625 19.125 "/>
<path style=" stroke:none;fill-rule:nonzero;fill:rgb(92.54902%,69.803923%,18.039216%);fill-opacity:1;" d="M 19.125 29.8125 C 19.125 31.367188 20.382812 32.625 21.9375 32.625 C 23.492188 32.625 24.75 31.367188 24.75 29.8125 C 24.75 28.257812 23.492188 27 21.9375 27 L 19.125 27 Z M 19.125 21.9375 C 19.125 23.492188 20.382812 24.75 21.9375 24.75 L 29.8125 24.75 C 31.367188 24.75 32.625 23.492188 32.625 21.9375 C 32.625 20.382812 31.367188 19.125 29.8125 19.125 L 21.9375 19.125 C 20.382812 19.125 19.125 20.382812 19.125 21.9375 Z M 19.125 21.9375 "/>
<path style=" stroke:none;fill-rule:nonzero;fill:rgb(21.176471%,77.254903%,94.117647%);fill-opacity:1;" d="M 16.875 6.1875 C 16.875 4.632812 15.617188 3.375 14.0625 3.375 C 12.507812 3.375 11.25 4.632812 11.25 6.1875 C 11.25 7.742188 12.507812 9 14.0625 9 L 16.875 9 Z M 16.875 14.0625 C 16.875 12.507812 15.617188 11.25 14.0625 11.25 L 6.1875 11.25 C 4.632812 11.25 3.375 12.507812 3.375 14.0625 C 3.375 15.617188 4.632812 16.875 6.1875 16.875 L 14.0625 16.875 C 15.617188 16.875 16.875 15.617188 16.875 14.0625 Z M 16.875 14.0625 "/>
</g>
</svg>
