<?xml version="1.0" encoding="UTF-8"?>
<svg xmlns="http://www.w3.org/2000/svg" xmlns:xlink="http://www.w3.org/1999/xlink" width="36px" height="36px" viewBox="0 0 36 36" version="1.1">
<g id="surface1">
<path style=" stroke:none;fill-rule:nonzero;fill:rgb(9.803922%,46.27451%,82.352942%);fill-opacity:1;" d="M 4.5 4.5 L 31.5 4.5 L 31.5 31.5 L 4.5 31.5 Z M 4.5 4.5 "/>
<path style=" stroke:none;fill-rule:nonzero;fill:rgb(100%,100%,100%);fill-opacity:1;" d="M 20.621094 16.5 L 10.667969 16.5 L 10.667969 18.949219 L 14.238281 18.949219 L 14.238281 30 L 17.0625 30 L 17.0625 18.949219 L 20.621094 18.949219 Z M 20.621094 16.5 "/>
<path style=" stroke:none;fill-rule:nonzero;fill:rgb(100%,100%,100%);fill-opacity:1;" d="M 29.394531 19.566406 C 29.394531 19.566406 28.054688 18.667969 26.542969 18.667969 C 25.027344 18.667969 24.480469 19.386719 24.480469 20.15625 C 24.480469 22.144531 30.019531 21.941406 30.019531 25.945312 C 30.019531 32.097656 21.574219 29.367188 21.574219 29.367188 L 21.574219 26.414062 C 21.574219 26.414062 23.191406 27.632812 25.125 27.632812 C 27.058594 27.632812 26.988281 26.367188 26.988281 26.191406 C 26.988281 24.355469 21.503906 24.355469 21.503906 20.285156 C 21.503906 14.746094 29.496094 16.933594 29.496094 16.933594 Z M 29.394531 19.566406 "/>
</g>
</svg>
